<?xml version="1.0" encoding="UTF-8"?>
<svg id="Ebene_1" data-name="Ebene 1" xmlns="http://www.w3.org/2000/svg" viewBox="0 0 512 512">
  <g id="w9OSp4">
    <path d="m245.57,181.27c7.65-9.12,16.68-12.22,27.19-8.78,13.12,4.3,18.44,14.26,17.91,28.45,8.19-8.57,17.72-10.83,28.21-8.02,10.74,2.88,16.81,10.33,18.46,21.5,2.19-1.28,4.1-2.57,6.15-3.58,15.94-7.88,35.87,4.09,35.94,21.88.17,41.08.41,82.17-.08,123.25-.46,38.9-49.43,73.77-88.22,84-41.44,10.93-83.92-7.26-104.92-44.6-26.58-47.26-66.25-123.43-50.1-154.08,9.87-18.73,34.41-11.06,43.48,8.08,3.44,7.24,7.1,19.41,12.57,27.1.56.79,1.17,1.54,2.33,3.04,0-1.91,0-2.97,0-4.04,0-60.36,0-120.72.01-181.08,0-12.71,8.83-22.9,21.65-25.16,11.61-2.04,23.76,4.96,27.81,16.36,1.03,2.9,1.55,6.13,1.56,9.21.12,27.39.07,54.78.07,82.17,0,1.19,0,2.37,0,4.31Z"/>
  </g>
</svg>