<?xml version="1.0" encoding="UTF-8"?>
<svg id="Ebene_1" data-name="Ebene 1" xmlns="http://www.w3.org/2000/svg" viewBox="0 0 512 512">
  <defs>
    <style>
      .cls-1 {
        fill: #fff;
      }
    </style>
  </defs>
  <path class="cls-1" d="m289.95,256.01l95-95c9.39-9.37,9.4-24.58.03-33.97-9.37-9.39-24.58-9.4-33.97-.03h0l-95,95-95-95c-9.39-9.39-24.61-9.39-34,0s-9.39,24.61,0,34l95,95-95,95c-9.39,9.39-9.39,24.61,0,34s24.61,9.39,34,0l95-95,95,95c9.39,9.39,24.61,9.39,34,0,9.39-9.39,9.39-24.61,0-34l-95.06-95Z"/>
</svg>