<?xml version="1.0" encoding="UTF-8"?>
<svg id="Ebene_1" data-name="Ebene 1" xmlns="http://www.w3.org/2000/svg" viewBox="0 0 21.28 21.24">
  <defs>
    <style>
      .cls-1 {
        fill: #0f2e40;
      }
    </style>
  </defs>
  <g id="np_rotation_3560630_000000" data-name="np rotation 3560630 000000">
    <path class="cls-1" d="m21.28,10.62c0,5.86-4.77,10.62-10.64,10.62-1.36,0-2.67-.26-3.86-.72-.03-.01-.06-.02-.09-.03C2.82,18.94.08,15.2,0,10.82c.03-3.08,1.47-6,3.9-7.91H0V0h7.28c.33,0,.63.11.87.29.36.26.59.69.59,1.17v7.28h-2.91l.06-4.2v-.37c-.49.37-3.35,2.46-3.39,6.41-.04,4.26,3.44,7.72,7.69,7.76h.08c4.28,0,7.76-3.47,7.76-7.76,0-.12-.11-4.52-3.28-5.89l2.01-3.25c4.59,3.21,4.52,8.94,4.52,9.18Z"/>
  </g>
</svg>