<svg xmlns="http://www.w3.org/2000/svg" width="36" height="36" viewBox="0 0 36 36">
  <circle id="Ellipse_12" data-name="Ellipse 12" cx="18" cy="18" r="18" fill="#fff"/>
  <path id="noun-body-4415242" d="M24.162,7.73A2.73,2.73,0,1,1,21.432,5,2.73,2.73,0,0,1,24.162,7.73Zm.165,5.63a36.191,36.191,0,0,0,5.56-.694,1.241,1.241,0,1,0-.529-2.425,44.228,44.228,0,0,1-15.854,0,1.241,1.241,0,1,0-.529,2.425,36.542,36.542,0,0,0,5.725.7v5.173L17,25.816a1.241,1.241,0,0,0,2.417.566l1.513-6.455H22.1l1.513,6.455a1.241,1.241,0,0,0,2.417-.566l-1.7-7.273V13.361Z" transform="translate(-3.432 1.83)" fill="#0f2e40" fill-rule="evenodd"/>
</svg>
